<?xml version="1.0" standalone="no"?>
<!DOCTYPE svg PUBLIC "-//W3C//DTD SVG 20010904//EN"
 "http://www.w3.org/TR/2001/REC-SVG-20010904/DTD/svg10.dtd">
<svg version="1.0" xmlns="http://www.w3.org/2000/svg"
 width="908.000000pt" height="908.000000pt" viewBox="0 0 908.000000 908.000000"
 preserveAspectRatio="xMidYMid meet">
<metadata>
Created by potrace 1.11, written by Peter Selinger 2001-2013
</metadata>
<g transform="translate(0.000000,908.000000) scale(0.100000,-0.100000)"
fill="#000000" stroke="none">
<path d="M4155 9064 c-77 -7 -198 -23 -270 -34 -71 -12 -143 -24 -160 -26 -16
-3 -103 -23 -193 -44 -1051 -253 -1989 -917 -2607 -1845 -134 -202 -224 -359
-315 -550 -90 -188 -95 -199 -136 -307 -169 -434 -275 -887 -311 -1333 -10
-128 -10 -642 0 -760 12 -143 33 -313 42 -345 2 -8 6 -37 10 -65 20 -161 99
-477 178 -710 406 -1205 1306 -2196 2440 -2689 132 -58 398 -156 496 -182 249
-69 455 -112 651 -138 63 -8 135 -18 160 -21 77 -11 650 -13 755 -4 918 84
1748 431 2445 1023 112 95 393 373 474 468 382 450 656 915 846 1435 94 261
179 582 215 813 3 19 8 46 10 60 11 55 35 256 42 353 10 129 10 623 1 742 -76
934 -418 1807 -987 2518 -141 176 -157 194 -346 383 -737 738 -1667 1172
-2705 1263 -147 13 -579 10 -735 -5z"/>
</g>
</svg>
